<mxfile host="app.diagrams.net" modified="2022-02-06T03:33:28.328Z" agent="5.0 (Windows NT 10.0; Win64; x64) AppleWebKit/537.36 (KHTML, like Gecko) Chrome/98.0.4758.80 Safari/537.36 Edg/98.0.1108.43" etag="8-2Gjy1wxYCmkgyXftq-" version="16.5.3" type="github">
  <diagram id="U5blkylpNGJGm4p2uLG8" name="Page-1">
    <mxGraphModel dx="1422" dy="832" grid="1" gridSize="10" guides="1" tooltips="1" connect="1" arrows="1" fold="1" page="1" pageScale="1" pageWidth="850" pageHeight="1100" math="0" shadow="0">
      <root>
        <mxCell id="0" />
        <mxCell id="1" parent="0" />
        <mxCell id="cCJyINPyPPTcgndPTt5n-3" value="&lt;h1&gt;Track App Usage&lt;/h1&gt;&lt;p&gt;Records the time duration an app has been used while tracking time on a task&lt;/p&gt;" style="text;html=1;strokeColor=none;fillColor=none;spacing=5;spacingTop=-20;whiteSpace=wrap;overflow=hidden;rounded=0;" vertex="1" parent="1">
          <mxGeometry x="40" y="40" width="220" height="80" as="geometry" />
        </mxCell>
        <mxCell id="cCJyINPyPPTcgndPTt5n-4" value="&lt;h1&gt;Declare distractions&lt;/h1&gt;&lt;p&gt;Distraction apps/sites can be declared to trigger messages to stay focused.&lt;/p&gt;" style="text;html=1;strokeColor=none;fillColor=none;spacing=5;spacingTop=-20;whiteSpace=wrap;overflow=hidden;rounded=0;" vertex="1" parent="1">
          <mxGeometry x="530" y="30" width="240" height="80" as="geometry" />
        </mxCell>
        <mxCell id="cCJyINPyPPTcgndPTt5n-5" value="&lt;h1&gt;Plan ahead&lt;/h1&gt;&lt;p&gt;Using intuitive shortcuts plan your day or a few hours ahead from now, by quickly typing a task name.&lt;/p&gt;" style="text;html=1;strokeColor=none;fillColor=none;spacing=5;spacingTop=-20;whiteSpace=wrap;overflow=hidden;rounded=0;" vertex="1" parent="1">
          <mxGeometry x="290" y="30" width="220" height="100" as="geometry" />
        </mxCell>
        <mxCell id="cCJyINPyPPTcgndPTt5n-6" value="&lt;h1&gt;Pull tasks&lt;/h1&gt;&lt;p&gt;Import tasks from your favorite project management tool.&lt;/p&gt;" style="text;html=1;strokeColor=none;fillColor=none;spacing=5;spacingTop=-20;whiteSpace=wrap;overflow=hidden;rounded=0;" vertex="1" parent="1">
          <mxGeometry x="40" y="130" width="220" height="80" as="geometry" />
        </mxCell>
      </root>
    </mxGraphModel>
  </diagram>
</mxfile>
